Simulation
nRows=38
nColumns=15
endheader
time  TH_x TH_y TH_z SC_y  SC_z  SC_x  AC_y  AC_z  AC_x  GH_y  GH_z  GH_yy  EL_x  PS_y
8.073123595505619  0.000000  0.000000  0.000000  -22.122766744070244  9.381480482319212  15.061452809765859  61.06017865330079  5.440764245085547  6.112477430284126  -147.91913233031843  14.289705764824888  -161.49887594458693  16.776809006174926  120.000000
8.113288389513109  0.000000  0.000000  0.000000  -21.88097657015292  9.419503633828816  14.64059228888167  60.930112399424466  5.292405978920908  6.13488267457453  -147.56604232581412  13.194449469122471  -162.09711411943104  16.291195514695232  120.000000
8.153453183520599  0.000000  0.000000  0.000000  -21.68063524000858  9.506090714245003  14.25775979327926  60.76804367756909  5.217549721178173  6.202161259594967  -147.81522303428815  11.938781793716531  -162.22084034758217  15.745349908166277  120.000000
8.19361797752809  0.000000  0.000000  0.000000  -21.537983305206954  9.652784560964056  13.931919811803747  60.57611552560662  5.229508182997117  6.3221309309075595  -148.77945847907466  10.508794773064796  -161.7508696856495  15.159648299126271  120.000000
8.23378277153558  0.000000  0.000000  0.000000  -21.470671853727737  9.867950953063291  13.678561608903818  60.35705167105133  5.336382457445559  6.501647277995673  -150.7407441624381  8.899738682863802  -160.3997946286505  14.55801325189495  120.000000
8.273947565543072  0.000000  0.000000  0.000000  -21.495069332030923  10.155898646826449  13.510207367436692  60.11516793598684  5.541127581911617  6.747083217697585  -154.40854330840747  7.120205001302415  -157.45327757716325  13.964977001914734  120.000000
8.314112359550561  0.000000  0.000000  0.000000  -21.624041186435374  10.517032791373005  13.43649029003433  59.85729758720635  5.842198162509194  7.063966045226795  -161.76356156185636  5.211823904372651  -150.92430893531326  13.402476572636496  120.000000
8.354277153558053  0.000000  0.000000  0.000000  -21.86595881210162  10.9466608674941  13.463140521115818  59.59119751026151  6.232878760406186  7.457057140020274  -179.5561709035675  3.346357669928637  -134.05240713447807  12.886994511323866  120.000000
8.394441947565543  0.000000  0.000000  0.000000  -22.22409837336192  11.435309941066546  13.591161509637129  59.324613254131734  6.700755054916924  7.930105949887183  133.0880189916676  2.3628606582482483  -87.69842657270087  12.428132929936456  120.000000
8.434606741573035  0.000000  0.000000  0.000000  -22.69635326114509  11.969996810131937  13.817180848810366  59.06623622799684  7.229389513767455  8.484544792312246  86.25758604462787  3.6144159896123274  -41.93469845756898  12.029234080959728  120.000000
8.474771535580524  0.000000  0.000000  0.000000  -23.275708439696867  12.536111899305299  14.134153624720934  58.82505616517246  7.8003648091482995  9.118596341646384  68.64999189886633  6.010825900399877  -25.441522929645284  11.688683841668142  120.000000
8.514936329588014  0.000000  0.000000  0.000000  -23.951824218408024  13.11940552143837  14.532442311720148  58.60849513112517  8.394978109867871  9.827121028433659  61.1862531807158  8.764572656846179  -19.123779576178087  11.401445007592635  120.000000
8.555101123595506  0.000000  0.000000  0.000000  -24.713446916580683  13.707082247730495  15.00107133223405  58.421315821397116  8.995988149194172  10.6010642461112  57.241436843020914  11.685856590856382  -16.34323755800594  11.160733012084068  120.000000
8.595265917602996  0.000000  0.000000  0.000000  -25.5497186100172  14.288626055982634  15.52871552712196  58.2655364976592  9.588851660786707  11.42728020199552  54.84142317449857  14.70006955006688  -15.116450622777927  10.959343413824056  120.000000
8.635430711610487  0.000000  0.000000  0.000000  -26.450251377923433  14.855178796714615  16.10426461440588  58.1406333544575  10.161824988042044  12.289771958103541  53.23812457869601  17.7603386000827  -14.68989816716461  10.790961638030176  120.000000
8.675595505617977  0.000000  0.000000  0.000000  -27.404665533521037  15.39889285900835  16.71685848588983  58.044213879671744  10.705981375701525  13.171296622410905  52.091066699972544  20.829518283864534  -14.721145049251177  10.650705780655255  120.000000
8.715760299625469  0.000000  0.000000  0.000000  -28.40276198965965  15.91355079348362  17.356010549820848  57.97251634392384  11.215356622543952  14.054017855527153  51.22229938765618  23.875041583882464  -15.032867558203158  10.53505215984513  120.000000
8.755925093632959  0.000000  0.000000  0.000000  -29.434723431577627  16.394630227863463  18.011690716233918  57.92032585758712  11.686601173235927  14.920158818956272  50.52816669133579  26.86724676738476  -15.52382359676502  10.44147518808371  120.000000
8.79608988764045  0.000000  0.000000  0.000000  -30.490655316608958  16.838905046976045  18.674193400737508  57.88149545311843  12.11824724426295  15.753101776130181  49.944015512902496  29.778881591019573  -16.13235739344494  10.368190071045941  120.000000
8.83625468164794  0.000000  0.000000  0.000000  -31.56001747767017  17.244199551583584  19.333930918555794  57.849769302877775  12.510058892077485  16.538293691678522  49.42840307920127  32.58518508743108  -16.819417639104916  10.31408812039215  120.000000
8.87641947565543  0.000000  0.000000  0.000000  -32.63129937249711  17.6092013481006  19.98147485142512  57.81947446033955  12.862682967756779  17.263831406940227  48.954803599675536  35.264077869205266  -17.559114001329363  10.278371170963004  120.000000
8.916584269662922  0.000000  0.000000  0.000000  -33.692198710084256  17.933354824578263  20.60775591822019  57.78595317207633  13.177438186712154  17.920765185555137  48.50675279128505  37.7964801165555  -18.3329216896879  10.260155090777173  120.000000
8.956749063670411  0.000000  0.000000  0.000000  -34.73007906254097  18.216663235644976  21.20457079575839  57.7456372558186  13.45626382158203  18.50329231331965  48.074789835654286  40.16669647019588  -19.12575867730407  10.257993883421843  120.000000
8.996913857677903  0.000000  0.000000  0.000000  -35.73251579617325  18.459501482177444  21.765286214085524  57.69590903605487  13.701921412873768  19.008805893169846  47.65431470062155  42.362945559487734  -19.92330195749676  10.269461470575882  120.000000
9.037078651685393  0.000000  0.000000  0.000000  -36.68786033611398  18.662377318669723  22.285460895376644  57.63477173001327  13.918046821781964  19.43786190352494  47.24415120437526  44.37762573913981  -20.710373575457616  10.290978401462915  120.000000
9.077243445692885  0.000000  0.000000  0.000000  -37.585609859793784  18.825757793392537  22.762984776333642  57.56065176747595  14.109006668962914  19.793718441749306  46.845621181052664  46.207102910702034  -21.47040860169791  10.317944246018406  120.000000
9.117408239700374  0.000000  0.000000  0.000000  -38.416413116244414  18.950033366101355  23.197639210596822  57.47233561146985  14.279436149151268  20.081612367761092  46.46203156489993  47.85095251099634  -22.185943676310565  10.345275577538839  120.000000
9.157573033707866  0.000000  0.000000  0.000000  -39.17170130524353  19.035553363886372  23.590256294921932  57.36916849235448  14.43370845262226  20.307808515765604  46.0984304332898  49.31081018469893  -22.839752246566288  10.368129514303396  120.000000
9.197737827715356  0.000000  0.000000  0.000000  -39.843069005001404  19.082842238869283  23.94165555643472  57.25137538168005  14.575383623559981  20.47868980076155  45.76152613214479  50.58907880414802  -23.416360772040115  10.382755247950389  120.000000
9.237902621722846  0.000000  0.000000  0.000000  -40.421544289822414  19.09272035084141  24.251635162153367  57.12040321585372  14.706807229337471  20.599995941280312  45.45957183161171  51.68768335362302  -23.903385100368336  10.387111391987286  120.000000
9.278067415730337  0.000000  0.000000  0.000000  -40.89711585551189  19.06650212000793  24.51824743093056  56.97909176261082  14.828950611559653  20.676295465249996  45.202151088879404  52.60708831386384  -24.29253180166567  10.381173838686438  120.000000
9.318232209737827  0.000000  0.000000  0.000000  -41.25860204318597  19.005997819064493  24.73747663894954  56.83159252921236  14.94150939976104  20.710699714707854  44.99964867105837  53.34573271224525  -24.579698986047717  10.366588493980547  120.000000
9.358397003745319  0.000000  0.000000  0.000000  -41.494061064315204  18.913460314333765  24.903354385613177  56.682952469121005  15.043247010002156  20.704779574927795  44.86256614956854  53.899819615398556  -24.764573155791453  10.345915142044827  120.000000
9.398561797752809  0.000000  0.000000  0.000000  -41.59155038062966  18.79142229843545  25.00832334905947  56.538515737747964  15.132407569038735  20.658589234072437  44.80060710380585  54.263497387825254  -24.84952764636465  10.321548093417976  120.000000
9.4387265917603  0.000000  0.000000  0.000000  -41.54010157503714  18.642411493616258  25.0437321618576  56.40321908220458  15.2071623298581  20.570773319255355  44.82186084688124  54.42915304162261  -24.838622263933637  10.294750386339249  120.000000
9.47889138576779  0.000000  0.000000  0.000000  -41.330721573846006  18.468791869397915  25.00027111682083  56.281031808832765  15.265893868591967  20.438673222521903  44.93207055472832  54.38789604002507  -24.736393400575746  10.264999708047817  120.000000
9.519056179775282  0.000000  0.000000  0.000000  -40.95710966270336  18.272419480775486  24.868280406681915  56.1746297342034  15.307445349888678  20.258437254388276  45.134229580172025  54.12998207148263  -24.547279752421577  10.229944793877637  120.000000
9.559220973782772  0.000000  0.000000  0.000000  -40.41626539159628  18.054622375578102  24.637926135463445  56.08530748196509  15.331069066843847  20.025203752285258  45.42840956512866  53.645303991549206  -24.275055730548573  10.186161894165448  120.000000
